<?xml version="1.0" encoding="UTF-8" standalone="no"?>
<svg
   xmlns:dc="http://purl.org/dc/elements/1.1/"
   xmlns:cc="http://web.resource.org/cc/"
   xmlns:rdf="http://www.w3.org/1999/02/22-rdf-syntax-ns#"
   xmlns:svg="http://www.w3.org/2000/svg"
   xmlns="http://www.w3.org/2000/svg"
   width="740" height="900" viewBox="0 70 740 900">
  <metadata>
    <rdf:RDF>
      <cc:Work rdf:about="">
        <dc:format>image/svg+xml</dc:format>
        <dc:type rdf:resource="http://purl.org/dc/dcmitype/StillImage" />
      </cc:Work>
    </rdf:RDF>
  </metadata>
  <title>Serifed version of Chi-Rho of Christian symbolism.</title>
  <path
     style="fill:#000000"
     d="M 291.63497,935.3062 C 286.66577,927.26585 292.43067,921.49952 308.68917,918.24786 C 332.16687,913.55228 334.84447,897.25247 334.84447,759.02708 L 334.84447,635.3341 L 258.16827,680.84236 C 215.99627,705.87188 180.43587,726.35056 179.14507,726.35056 C 177.85427,726.35056 164.03417,734.82541 148.4336,745.18363 C 123.88067,761.48583 120.42068,765.76357 122.68609,777.0162 C 128.54593,806.12284 128.34391,810.04538 120.90504,811.59967 C 115.95851,812.63324 107.14684,801.86588 96.055991,781.23557 C 86.604411,763.65452 69.798391,735.05084 58.709271,717.67188 C 39.973681,688.30931 37.458631,675.41844 50.465511,675.41844 C 53.398611,675.41844 60.441321,681.32092 66.115991,688.53509 C 73.824051,698.33433 79.453241,700.89387 88.372931,698.65515 C 98.359041,696.14883 225.59177,625.2529 282.48097,590.4954 L 298.87577,580.47869 L 203.11577,525.96385 C 150.44776,495.98068 99.926471,468.64476 90.846221,465.21734 C 75.116041,459.27987 73.681171,459.78883 60.451381,475.99863 C 48.075701,491.16194 45.835501,492.13127 39.846141,484.91452 C 34.113351,478.00693 36.116871,472.13872 53.484761,444.96775 C 64.681981,427.45041 81.319161,398.79338 90.456271,381.28546 C 105.95664,351.58468 116.32918,342.98197 123.21206,354.1187 C 124.79806,356.68489 123.85164,364.6868 121.10891,371.90071 C 118.36619,379.11462 117.40647,388.36381 118.9762,392.45446 C 122.29736,401.10925 167.09287,429.46744 263.53957,483.97144 L 332.29787,522.82822 L 333.63477,336.02595 C 335.10957,129.95353 334.48817,125.35157 305.18647,125.35157 C 290.07277,125.35157 278.81917,117.30856 278.81917,106.50668 C 278.81917,95.831311 500.11107,97.103351 526.01727,107.92764 C 578.01777,129.65488 607.14877,172.46401 607.19107,227.2158 C 607.26127,318.25491 533.78277,385.10537 433.64717,385.10537 L 401.60747,385.10537 L 400.05857,453.62751 L 398.50967,522.14965 L 411.24267,513.6608 C 418.24587,508.99193 451.47907,489.4358 485.09427,470.20273 C 563.82017,425.15941 597.76167,402.57405 601.54537,392.71388 C 603.21507,388.36275 600.88037,375.5534 596.35707,364.24865 C 590.00517,348.37363 589.51117,342.32094 594.18727,337.6606 C 602.18797,329.68671 609.88807,340.14375 652.82517,417.29368 C 676.26517,459.41102 685.14887,479.94769 681.50447,483.59208 C 677.86007,487.23648 672.55227,485.42198 664.36917,477.73437 C 647.67637,462.0523 636.44947,463.61991 588.43997,488.33636 C 535.22307,515.73374 436.70877,574.28823 436.70877,578.52167 C 436.70877,581.40418 469.55067,601.10864 541.11957,641.16593 C 582.87287,664.53537 637.15927,690.69808 643.89627,690.69808 C 647.35747,690.69808 656.58997,682.67632 664.41287,672.87199 C 678.35437,655.39922 692.78417,650.06652 698.98277,660.09618 C 700.69957,662.87402 695.31237,673.76076 687.01117,684.28893 C 678.70997,694.81716 660.32017,724.05862 646.14477,749.27002 C 631.96947,774.48141 618.34367,798.531 615.86507,802.71355 C 612.10397,809.0606 610.02007,809.20719 603.26397,803.60007 C 596.84807,798.27532 596.30517,794.38874 600.64647,784.86051 C 603.65907,778.24871 604.74587,769.24819 603.06177,764.85942 C 601.37767,760.4706 581.02177,744.69947 557.82657,729.81252 C 515.41487,702.59216 407.63837,639.76596 403.35437,639.76596 C 398.19907,639.76596 401.29137,883.3946 406.64137,898.74157 C 410.69937,910.38221 416.61817,915.90106 428.28757,918.9249 C 437.12107,921.21394 444.34857,926.37897 444.34857,930.40281 C 444.34857,936.36579 430.52527,937.97912 369.60707,939.12611 C 322.47117,940.0136 293.67237,938.60273 291.63497,935.3062 z M 478.01517,351.80164 C 502.97387,342.99572 525.36717,323.83599 537.31187,301.06737 C 549.67167,277.50739 547.08757,227.96486 531.75167,194.46678 C 513.86277,155.39225 487.62917,139.15947 437.98207,136.44416 L 401.05627,134.42461 L 401.05627,247.03196 L 401.05627,359.63931 L 428.42857,359.63931 C 443.48337,359.63931 465.79737,356.11236 478.01517,351.80164 z " />
</svg>
